<svg xmlns="http://www.w3.org/2000/svg" viewBox="0 0 64 64">
  <rect width="64" height="64" rx="18" fill="#080A12"/>
  <path fill="#E060FF" d="M36.6 7.5 13.7 35.2c-1.2 1.5-.2 3.8 1.8 3.8h13.4l-2.2 15.2c-.4 2.4 2.7 3.6 4 1.6l19.5-29.2c1-1.6-.1-3.6-2-3.6H35.6l4.9-12.3c.9-2.4-2.3-5.1-3.9-3.2Z"/>
  <path fill="#8060FF" d="M28.2 9.6 13.7 35.2c-1.2 1.5-.2 3.8 1.8 3.8h13.4l-2.2 15.2c-.1.8.1 1.4.6 1.8l14.1-30.2H29.9l6.8-18.2c-2.4-.9-6.7-.8-8.5 2Z" opacity=".82"/>
  <path fill="#47BFFF" d="M40.1 23h8.1c1.9 0 3 2.1 2 3.6l-7.3 11c-2.7-2.9-3.6-8.3-2.8-14.6Z" opacity=".8"/>
</svg>
